<?xml version="1.0" encoding="iso-8859-1"?>
<!-- Generator: Adobe Illustrator 19.0.0, SVG Export Plug-In . SVG Version: 6.00 Build 0)  -->
<svg version="1.1" id="Capa_1" xmlns="http://www.w3.org/2000/svg" xmlns:xlink="http://www.w3.org/1999/xlink" x="0px" y="0px"
	 viewBox="0 0 512 512" style="enable-background:new 0 0 512 512;" xml:space="preserve">
<g>
	<g>
		<path d="M466.637,365.933l-8.116-58.553L386.8,278.213c4.866,12.526,8.995,25.064,12.351,37.409l32.032,13.026l7.668,55.319
			l51.896,32.334l15.864-25.462L466.637,365.933z"/>
	</g>
</g>
<g>
	<g>
		<path d="M53.479,307.38l-8.116,58.553L5.389,390.839l15.864,25.462l51.896-32.334l7.668-55.319l32.032-13.026
			c3.355-12.345,7.484-24.883,12.35-37.408L53.479,307.38z"/>
	</g>
</g>
<g>
	<g>
		<path d="M96.03,214.07l-39.894-37.136H0v30h44.335l39.894,37.136h56.126c5.303-10.561,10.961-20.598,16.896-30H96.03z"/>
	</g>
</g>
<g>
	<g>
		<path d="M455.863,176.934L415.97,214.07h-61.22c5.935,9.402,11.593,19.439,16.896,30h56.126l39.893-37.136H512v-30H455.863z"/>
	</g>
</g>
<g>
	<g>
		<path d="M434.948,70.48l-46.203,62.509l-65.642,25.568c3.063-6.337,4.781-13.439,4.781-20.936
			c0-26.617-21.654-48.271-48.271-48.271H271V54.443h-30V89.35h-8.613c-26.617,0-48.271,21.654-48.271,48.271
			c0,7.497,1.719,14.599,4.781,20.936l-65.642-25.567L77.052,70.48L52.927,88.312l51.358,69.484l72.885,28.388
			c5.605-6.89,11.353-13.207,17.195-18.877c6.418,8.201,15.417,14.287,25.774,17.006c-5.585,4.96-11.152,10.716-16.624,17.158
			c9.192,47.104,30.772,80.636,52.485,80.636c21.713,0,43.294-33.533,52.486-80.636c-5.471-6.441-11.038-12.198-16.623-17.157
			c10.356-2.719,19.355-8.805,25.773-17.006c5.842,5.67,11.59,11.988,17.195,18.878l72.885-28.388l51.358-69.484L434.948,70.48z"/>
	</g>
</g>
<g>
	<g>
		<path d="M256,392.455c-14.193,22.158-30,40.875-45.829,54.133c14.119,7.198,29.752,10.969,45.829,10.969
			c16.077,0,31.709-3.771,45.829-10.969C286,433.33,270.193,414.614,256,392.455z"/>
	</g>
</g>
<g>
	<g>
		<path d="M355.815,281.547c-7.15-17.263-15.441-33.518-24.41-48.13c-12.752,41.018-34.533,68.728-60.406,76.474v49.105H271
			c15.383,27.869,33.494,51.074,51.253,65.571c15.535,12.682,29.735,17.765,38.962,13.942c11.09-4.594,17.953-22.984,18.356-49.194
			C380.053,357.968,371.617,319.696,355.815,281.547z"/>
	</g>
</g>
<g>
	<g>
		<path d="M180.595,233.418c-8.97,14.612-17.261,30.867-24.411,48.13c-15.802,38.148-24.238,76.421-23.755,107.768
			c0.403,26.21,7.266,44.601,18.356,49.194c9.227,3.822,23.428-1.261,38.963-13.942c17.759-14.498,35.87-37.703,51.253-65.571
			v-49.105C215.128,302.145,193.347,274.436,180.595,233.418z"/>
	</g>
</g>
<g>
</g>
<g>
</g>
<g>
</g>
<g>
</g>
<g>
</g>
<g>
</g>
<g>
</g>
<g>
</g>
<g>
</g>
<g>
</g>
<g>
</g>
<g>
</g>
<g>
</g>
<g>
</g>
<g>
</g>
</svg>
