<?xml version="1.0" encoding="iso-8859-1"?>
<!-- Generator: Adobe Illustrator 16.0.0, SVG Export Plug-In . SVG Version: 6.00 Build 0)  -->
<!DOCTYPE svg PUBLIC "-//W3C//DTD SVG 1.1//EN" "http://www.w3.org/Graphics/SVG/1.1/DTD/svg11.dtd">
<svg version="1.1" id="Capa_1" xmlns="http://www.w3.org/2000/svg" xmlns:xlink="http://www.w3.org/1999/xlink" x="0px" y="0px"
	 width="557.989px" height="557.99px" viewBox="0 0 557.989 557.99" style="enable-background:new 0 0 557.989 557.99;"
	 xml:space="preserve">
<g>
	<g>
		<path d="M12.822,355.574c9.103-1.444,17.973-3.627,26.622-6.435c10.257-1.244,20.519-2.468,30.808-3.26
			c4.529-0.347,10.094,0.579,13.746,3.048c21.024,14.235,44.292,23.269,69.103,26.034c21.432,2.391,34.958,14.044,47.495,30.809
			c0.069-0.062,0.147-0.131,0.216-0.192c0.449,1.767,0.894,3.529,1.342,5.296c0.645,2.55,4.582,1.469,3.933-1.085
			c-0.612-2.424-1.228-4.847-1.844-7.274c1.293-1.15,2.668-2.379,4.182-3.729c1.412,1.281,2.897,2.623,4.549,4.125
			c0.844,3.325,1.685,6.654,2.525,9.979c0.645,2.55,4.582,1.469,3.933-1.085c-0.6-2.371-1.2-4.741-1.803-7.115
			c1.016-2.521,1.799-4.962,3.419-6.5c1.358-1.289,3.644-1.652,6.683-2.395c1.754,1.154,3.15,2.778,4.117,5.096
			c0.09,0.2,0.179,0.404,0.269,0.604c0.237,0.53,0.645,0.824,1.11,0.942c0.388,1.024,0.775,2.053,1.163,3.077
			c0.922,2.436,4.867,1.379,3.933-1.086c-4.337-11.473-8.678-22.945-13.016-34.419c16.031-3.753,32.102-7.649,48.258-11.163
			c4.904-1.064,10.51,0.172,15.023-1.603c16.291-6.406,28.008,2.868,39.453,11.306c10.693,7.882,20.105,17.495,30.236,26.16
			c1.848,1.583,4.342,2.836,6.717,3.285c2.961,0.562,5.961,0.946,8.951,1.452c3.178,1.457,5.908,3.79,7.771,6.838
			c1.367,2.24,4.9,0.192,3.525-2.061c-0.938-1.534-2.031-2.9-3.248-4.116c1.131-2.162,0.857-7.516,3.758-5.729
			c1.033,2.272,2.064,4.541,3.098,6.813c1.084,2.391,4.602,0.318,3.521-2.061c-0.662-1.452-1.318-2.9-1.98-4.353
			c0.09-1.832,0.086-3.521,0.029-5.129l3.994,4.684c1.709,2.003,4.582-0.894,2.885-2.885c-2.645-3.101-5.291-6.205-7.936-9.307
			c-2.408-8.771-9.014-13.479-22.072-17.943c24.459-31.22,60.029-40.522,96.785-47.373c0.199,1.53,0.4,3.064,0.656,5.015
			c5.975-5.867,11.768-11.562,17.398-17.096c1.582,2.595,3.256,5.333,5.156,8.454c8.553-10.763,13.811-13.26,18.695-7.119
			l2.121,28.706c0.191,2.607,4.275,2.628,4.08,0c-0.828-11.183-1.652-22.37-2.48-33.554c0.195-2.994,0.4-6.156,0.648-9.931
			c3.297,16.406,6.598,32.808,9.895,49.213c0.518,2.579,4.451,1.485,3.932-1.085c-3.174-15.794-6.348-31.583-9.525-47.377
			c2.84,1.922,5.451,3.692,7.928,5.373c3.406,5.39,6.01,11.27,7.727,17.622c0.686,2.537,4.623,1.46,3.934-1.086
			c-1.926-7.115-4.934-13.721-8.883-19.734c-2.158-5.296-4.41-10.82-6.666-16.361c0.02-0.016,0.041-0.028,0.064-0.044
			c4.961,8.828,9.924,17.657,14.885,26.486c1.289,2.293,4.814,0.237,3.525-2.061l-12.959-23.055c0.779,0.709,1.57,1.432,2.436,2.219
			c5.064,6.691,10.123,13.382,15.186,20.073c1.566,2.068,5.113,0.041,3.525-2.061c-5.871-7.76-11.742-15.524-17.617-23.284
			c-0.893-2.154-1.637-4.198-2.109-6.189c7.082,8.69,14.166,17.376,21.252,26.067c1.666,2.04,4.533-0.865,2.885-2.885
			c-8.082-9.914-16.164-19.824-24.246-29.739c0.125-0.567,0.334-1.134,0.525-1.701c5.533,6.377,11.064,12.754,16.594,19.134
			c1.727,1.991,4.598-0.905,2.885-2.884c-5.803-6.687-11.604-13.374-17.402-20.061l28.859-15.92
			c2.305-1.269,0.248-4.794-2.061-3.521c-7.014,3.868-14.023,7.736-21.033,11.604c3.822-3.076,7.646-6.153,11.469-9.225
			c2.053-1.648-0.857-4.516-2.885-2.884c-5.092,4.096-10.188,8.197-15.279,12.293c-2.871-3.427-4.484-6.74-5.32-9.984
			c6.785-8.372,13.57-16.74,20.359-25.112c1.641-2.023-1.229-4.929-2.885-2.884l-14.969,18.462
			c2.908-6.757,5.818-13.517,8.727-20.273c1.027-2.391-2.484-4.472-3.525-2.061c-2.215,5.145-4.43,10.294-6.646,15.438
			c1.641-5.581,3.865-11.11,4.5-16.785c0.502-1.774,1.004-3.545,1.51-5.32c0.719-2.538-3.219-3.611-3.932-1.085
			c-2.629,9.262-5.252,18.523-7.875,27.781c-0.012,0.032-0.029,0.069-0.041,0.102c-0.754-0.147-1.514-0.29-2.268-0.437
			c0.076-2.187,0.158-4.374,0.236-6.565l4.52-17.536c0.658-2.55-3.275-3.631-3.934-1.085c-0.822,3.203-1.652,6.406-2.477,9.604
			c-0.93,2.44-1.904,4.998-3.246,8.527c-0.547-8.637-1.094-17.274-1.641-25.912c-0.168-2.611-4.248-2.627-4.08,0l0.885,13.938
			c-2.533,0.681-5.496,2.285-7.074,1.403c-19.434-10.84-38.4-22.525-57.943-33.15c-33.535-18.229-69.074-18.434-104.424-7.536
			c-14.688,4.529-26.471,2.371-39.332-3.99c-32.75-16.198-67.491-23.807-104.105-21.812c-43.297,2.362-80.029,19.388-110.625,49.979
			c-2.236,2.236-4.888,4.06-7.348,6.075c-5.688,8.397-11.379,16.79-17.066,25.186c-5.361,30.922-13.395,61.849,1.444,93.721
			c-0.901,0.478-1.803,0.959-2.713,1.416c-9.657,3.354-18.683,6.418-27.593,9.682c-3.043,1.114-6.059,2.313-9.074,3.518
			c-3.9,0.897-7.842,1.701-11.853,2.338C-5.562,337.96-0.042,357.618,12.822,355.574z"/>
	</g>
</g>
<g>
</g>
<g>
</g>
<g>
</g>
<g>
</g>
<g>
</g>
<g>
</g>
<g>
</g>
<g>
</g>
<g>
</g>
<g>
</g>
<g>
</g>
<g>
</g>
<g>
</g>
<g>
</g>
<g>
</g>
</svg>
